<svg width="24" height="24" viewBox="0 0 24 24" fill="none" xmlns="http://www.w3.org/2000/svg">
<rect width="24" height="24" rx="12" fill="#479AFF"/>
<path d="M14.5 4.5C14.96 4.5 15.3333 4.87333 15.3333 5.33333V8.66667C15.3333 9.12667 14.96 9.5 14.5 9.5H12.8333V11.1667H16.1667C16.6267 11.1667 17 11.54 17 12V14.5H18.6667C19.1267 14.5 19.5 14.8733 19.5 15.3333V18.6667C19.5 19.1267 19.1267 19.5 18.6667 19.5H13.6667C13.2067 19.5 12.8333 19.1267 12.8333 18.6667V15.3333C12.8333 14.8733 13.2067 14.5 13.6667 14.5H15.3333V12.8333H8.66667V14.5H10.3333C10.7933 14.5 11.1667 14.8733 11.1667 15.3333V18.6667C11.1667 19.1267 10.7933 19.5 10.3333 19.5H5.33333C4.87333 19.5 4.5 19.1267 4.5 18.6667V15.3333C4.5 14.8733 4.87333 14.5 5.33333 14.5H7V12C7 11.54 7.37333 11.1667 7.83333 11.1667H11.1667V9.5H9.5C9.04 9.5 8.66667 9.12667 8.66667 8.66667V5.33333C8.66667 4.87333 9.04 4.5 9.5 4.5H14.5ZM9.5 16.1667H6.16667V17.8333H9.5V16.1667ZM17.8333 16.1667H14.5V17.8333H17.8333V16.1667ZM13.6667 6.16667H10.3333V7.83333H13.6667V6.16667Z" fill="white"/>
</svg>
