<svg width="48" height="48" viewBox="0 0 48 48" fill="none" xmlns="http://www.w3.org/2000/svg">
<rect width="48" height="48" rx="10" fill="#FCB306"/>
<path d="M24.3327 33.2169L26.0858 31.7107V25.2416C26.0858 24.2597 25.2899 23.4638 24.308 23.4638H16.7031C16.2122 23.4638 15.8142 23.0658 15.8142 22.5749V19.9082C15.8142 19.4173 16.2122 19.0194 16.7031 19.0194H26.0858V16.328H11.4191C10.9282 16.328 10.5302 16.726 10.5302 17.2169V25.3157C10.5302 25.8066 10.9282 26.2045 11.4191 26.2045H19.3944C19.8854 26.2045 20.2833 26.6025 20.2833 27.0934V29.6366C20.2833 30.1276 19.8854 30.5255 19.3944 30.5255H11.4191C10.9282 30.5255 10.5302 30.9235 10.5302 31.4144V32.328C10.5302 32.8189 10.9282 33.2169 11.4191 33.2169H24.3327Z" fill="white"/>
<path d="M30.4879 35.6884C32.0026 35.6884 33.3304 35.4155 34.4713 34.8696C35.6123 34.3237 36.3819 33.6475 36.7802 32.841C37.1786 32.0345 37.3777 30.7804 37.3777 29.0789C37.3777 26.738 37.0187 25.0414 36.3007 23.989C35.5828 22.9366 33.8419 21.5891 31.0781 19.9466C30.1142 19.3761 29.529 18.8892 29.3224 18.486C29.106 18.0827 28.9978 17.4828 28.9978 16.6861C28.9978 16.0664 29.0937 15.6042 29.2855 15.2993C29.4773 14.9944 29.7601 14.8419 30.1339 14.8419C30.4781 14.8419 30.724 14.955 30.8715 15.1812C31.0191 15.4075 31.0928 15.9337 31.0928 16.7598V17.6414C31.0928 18.1323 31.4908 18.5303 31.9817 18.5303H35.9725C36.4634 18.5303 36.8614 18.1323 36.8614 17.6414V17.586C36.8614 15.6878 36.677 14.3428 36.3081 13.551C35.9393 12.7592 35.1869 12.1027 34.0509 11.5814C32.9149 11.0601 31.5403 10.7995 29.9273 10.7995C28.452 10.7995 27.193 11.038 26.1504 11.515C25.1079 11.9921 24.353 12.6535 23.8858 13.4994C23.4186 14.3452 23.185 15.6829 23.185 17.5123C23.185 18.7811 23.3498 19.8236 23.6793 20.64C24.0088 21.4563 24.4243 22.0956 24.9259 22.5579C25.4275 23.0202 26.4504 23.7628 27.9946 24.7857C29.5388 25.7987 30.5076 26.5216 30.901 26.9544C31.2846 27.3872 31.4764 28.3068 31.4764 29.7133C31.4764 30.3526 31.3756 30.8345 31.174 31.1591C30.9723 31.4837 30.665 31.646 30.2519 31.646C29.8388 31.646 29.5511 31.5181 29.3888 31.2624C29.2265 31.0067 29.1454 30.4313 29.1454 29.5362V27.5187C29.1454 27.0278 28.7474 26.6298 28.2565 26.6298H23.3768V28.1937C23.3768 29.9838 23.5588 31.3657 23.9227 32.3394C24.2866 33.3131 25.0562 34.1147 26.2316 34.7442C27.4069 35.3737 28.8257 35.6884 30.4879 35.6884Z" fill="white"/>
</svg>
