<svg width="48" height="48" viewBox="0 0 48 48" fill="none" xmlns="http://www.w3.org/2000/svg">
<rect width="48" height="48" rx="10" fill="#FCB306"/>
<path d="M36.5873 19.5119L33.0897 8.63334C33.0591 8.53973 32.9834 8.46845 32.8889 8.44442C32.7944 8.42039 32.6944 8.44696 32.6237 8.51484C26.7553 14.0997 19.8504 10.4693 14.1543 14.3824L12.2913 14.9944C11.852 15.1389 11.6115 15.6164 11.7543 16.061L19.1159 38.9625C19.259 39.4068 19.7308 39.6496 20.17 39.5051L21.3169 39.1276C21.7562 38.9831 21.9967 38.5056 21.8539 38.0611L17.9021 25.763C23.5003 20.9441 34.3386 23.26 36.5572 19.7591C36.6035 19.6855 36.6146 19.5947 36.5873 19.5119Z" fill="white"/>
</svg>
