<svg width="48" height="48" viewBox="0 0 48 48" fill="none" xmlns="http://www.w3.org/2000/svg">
<rect width="48" height="48" rx="10" fill="#FCB306"/>
<path d="M37.0368 35.8513C37.6915 35.8513 38.2222 36.382 38.2222 37.0368C38.2222 37.6915 37.6915 38.2222 37.0368 38.2222H10.9632C10.3085 38.2222 9.77777 37.6915 9.77777 37.0368C9.77777 36.382 10.3085 35.8513 10.9632 35.8513H37.0368ZM26.3708 15.7043C27.0233 15.7043 27.5553 16.2347 27.5553 16.8889V32.2957C27.5558 32.6102 27.4312 32.9119 27.209 33.1345C26.9868 33.357 26.6852 33.482 26.3708 33.482H21.6292C21.3147 33.482 21.0132 33.357 20.791 33.1345C20.5688 32.9119 20.4442 32.6102 20.4446 32.2957V16.8889C20.4446 16.2347 20.975 15.7043 21.6292 15.7043H26.3708ZM16.8893 21.6291C17.5435 21.6291 18.0739 22.1611 18.0739 22.8154V32.2957C18.0743 32.6102 17.9497 32.9119 17.7275 33.1345C17.5053 33.357 17.2038 33.482 16.8893 33.482H12.1494C11.8347 33.4825 11.5327 33.3576 11.3101 33.1351C11.0876 32.9125 10.9627 32.6105 10.9632 32.2957V22.8154C10.9632 22.1611 11.4952 21.6291 12.1494 21.6291H16.8893ZM35.8506 9.77777C36.5048 9.77777 37.0368 10.3082 37.0368 10.9624V32.2957C37.0373 32.6105 36.9124 32.9125 36.6899 33.1351C36.4673 33.3576 36.1653 33.4825 35.8506 33.482H31.1107C30.7962 33.482 30.4947 33.357 30.2725 33.1345C30.0503 32.9119 29.9257 32.6102 29.9261 32.2957V10.9624C29.9261 10.3098 30.4565 9.77777 31.1107 9.77777H35.8506Z" fill="white"/>
</svg>
