<svg width="48" height="48" viewBox="0 0 48 48" fill="none" xmlns="http://www.w3.org/2000/svg">
<rect width="48" height="48" rx="10" fill="#FCB306"/>
<path d="M12.28 34.6792L12.4121 25.3333H13.3333L15.7102 34.8814C15.8088 35.2775 16.1645 35.5555 16.5727 35.5555H17.5179C18.0089 35.5555 18.4068 35.1576 18.4068 34.6666C18.4068 34.5914 18.3973 34.5164 18.3784 34.4436L15.5555 23.5555L18.2527 14.4753C18.3925 14.0047 18.1244 13.5099 17.6538 13.3701C17.5716 13.3457 17.4864 13.3333 17.4007 13.3333H16.4579C16.0627 13.3333 15.7149 13.5943 15.6044 13.9738L13.3333 21.7778H12.3872L12.2801 14.2096C12.2732 13.7237 11.8773 13.3333 11.3913 13.3333H10.6667C10.1757 13.3333 9.77777 13.7313 9.77777 14.2222V34.6666C9.77777 35.1576 10.1757 35.5555 10.6667 35.5555H11.3912C11.8773 35.5555 12.2732 35.1652 12.28 34.6792ZM24.8889 34.6666V24.4444L28.0733 14.4931C28.2229 14.0255 27.9652 13.5252 27.4976 13.3756C27.41 13.3476 27.3186 13.3333 27.2267 13.3333H26.3313C25.9179 13.3333 25.5591 13.6183 25.4655 14.0209L23.6317 21.9071L21.6902 14.01C21.5925 13.6126 21.2362 13.3333 20.827 13.3333H19.9022C19.4113 13.3333 19.0133 13.7313 19.0133 14.2222C19.0133 14.3183 19.0289 14.4137 19.0594 14.5048L22.3746 24.3932V34.6666C22.3746 35.1576 22.7726 35.5555 23.2635 35.5555H24C24.4909 35.5555 24.8889 35.1576 24.8889 34.6666ZM35.1072 34.6627L35.0291 16.8928C35.027 16.4019 35.4232 16.0021 35.9141 16C35.9154 16 35.9167 16 35.918 16H37.3333C37.8242 16 38.2222 15.602 38.2222 15.1111V14.2222C38.2222 13.7313 37.8242 13.3333 37.3333 13.3333H30.2222C29.7313 13.3333 29.3333 13.7313 29.3333 14.2222V15.1111C29.3333 15.602 29.7313 16 30.2222 16H31.6704C32.1598 16 32.5571 16.3956 32.5593 16.885L32.6374 34.6706C32.6395 35.1599 33.0369 35.5555 33.5263 35.5555H34.2183C34.7092 35.5555 35.1072 35.1576 35.1072 34.6666C35.1072 34.6653 35.1072 34.664 35.1072 34.6627Z" fill="white"/>
</svg>
