<svg width="48" height="48" viewBox="0 0 48 48" fill="none" xmlns="http://www.w3.org/2000/svg">
<rect width="48" height="48" rx="10" fill="#FCB306"/>
<path d="M22.4196 29.7945C22.4196 30.6672 23.1271 31.3747 23.9998 31.3747C24.8725 31.3747 25.58 30.6672 25.58 29.7945C25.58 28.9218 24.8725 28.2143 23.9998 28.2143C23.1271 28.2143 22.4196 28.9218 22.4196 29.7945ZM24.7899 26.1074C24.9348 26.1074 25.0533 25.9889 25.0533 25.844V16.8896C25.0533 16.7448 24.9348 16.6263 24.7899 16.6263H23.2097C23.0649 16.6263 22.9463 16.7448 22.9463 16.8896V25.844C22.9463 25.9889 23.0649 26.1074 23.2097 26.1074H24.7899ZM37.9584 19.9183H36.0062C35.9206 19.9183 35.8416 19.9578 35.7922 20.027L32.2861 24.8597L30.6433 22.5948C30.5939 22.5256 30.5149 22.4861 30.4293 22.4861H28.4771C28.2631 22.4861 28.138 22.7297 28.2631 22.9042L31.8581 27.8654C32.0688 28.1551 32.5034 28.1551 32.7141 27.8654L38.1724 20.3364C38.2975 20.1619 38.1724 19.9183 37.9584 19.9183ZM36.5099 29.992H34.3963C34.2153 29.992 34.0474 30.0875 33.9486 30.2389C33.4844 30.9764 32.9379 31.6611 32.3091 32.2866C31.2293 33.3631 29.975 34.2092 28.5792 34.7985C27.1339 35.4075 25.5998 35.7169 24.013 35.7169C22.4295 35.7169 20.892 35.4075 19.4468 34.7985C18.0509 34.2092 16.7966 33.3631 15.7168 32.2866C14.637 31.2101 13.7909 29.9558 13.2016 28.56C12.5893 27.1181 12.2798 25.5807 12.2798 24.0005C12.2798 22.4203 12.5893 20.8829 13.2016 19.441C13.7909 18.0451 14.637 16.7909 15.7168 15.7143C16.7966 14.6378 18.0509 13.7918 19.4468 13.2025C20.892 12.5935 22.4262 12.284 24.013 12.284C25.5965 12.284 27.1339 12.5935 28.5792 13.2025C29.975 13.7918 31.2293 14.6378 32.3091 15.7143C32.9346 16.3398 33.4811 17.0246 33.9486 17.762C34.0441 17.9167 34.2153 18.0089 34.3963 18.0089H36.5099C36.7074 18.0089 36.8325 17.8015 36.7469 17.627C34.4293 13.0214 29.6853 9.84459 24.1875 9.77875C16.3259 9.68657 9.7943 16.116 9.7778 23.9741C9.76137 31.8389 16.1415 38.2222 24.013 38.2222C29.5833 38.2222 34.4029 35.0289 36.7436 30.3739C36.8325 30.1994 36.7041 29.992 36.5099 29.992Z" fill="white"/>
</svg>
