<svg width="48" height="48" viewBox="0 0 48 48" fill="none" xmlns="http://www.w3.org/2000/svg">
<rect width="48" height="48" rx="10" fill="#FCB306"/>
<path d="M35.3636 39.1111H12.4943C10.9149 39.1111 9.77777 37.8227 9.77777 36.3752V21.4073C9.77777 20.8346 10.2042 20.4052 10.7728 20.4052H37.2272C37.7958 20.4052 38.2222 20.8346 38.2222 21.4073V36.3752C38.2222 37.9659 36.9429 39.1111 35.3636 39.1111ZM19.2224 34.9437C19.6488 34.9437 19.9331 34.6573 19.9331 34.2279V28.4538C19.9331 28.0244 19.6488 27.738 19.2224 27.738H14.6422C14.2158 27.738 13.9315 28.0244 13.9315 28.4538V34.212C13.9315 34.6414 14.2158 34.9277 14.6422 34.9277H19.2224V34.9437ZM22.7918 8.88892V18.0987H10.7886C10.22 18.0987 9.79356 17.5261 10.0779 16.9535L12.6522 10.0501C12.9365 9.31839 13.6472 8.88892 14.3579 8.88892H22.7918ZM37.6536 16.9535C37.7958 17.5261 37.5115 18.0987 36.9429 18.0987H25.0819V8.88892H33.3735C34.0843 8.88892 34.795 9.31839 35.0951 10.0342L37.6536 16.9535Z" fill="white"/>
</svg>
