<svg width="48" height="48" viewBox="0 0 48 48" fill="none" xmlns="http://www.w3.org/2000/svg">
<rect width="48" height="48" rx="10" fill="#5ED582"/>
<path d="M37.4997 14.1782L24.5411 8.12175C24.1997 7.9574 23.8003 7.96045 23.4589 8.12479L10.5034 14.3213C10.0584 14.5282 9.77778 14.9695 9.77778 15.4626V19.2973C9.75352 26.1268 13.2012 32.4998 18.9321 36.2281L22.578 38.6233C23.0474 38.9398 23.6022 39.1072 24.1692 39.1102C24.7362 39.1133 24.4131 39.1133 24.7911 39.028C24.9892 38.9854 25.1873 38.9276 25.3703 38.8454C25.5288 38.7785 25.6934 38.7237 25.8397 38.6263L26.0958 38.4528L26.0988 38.4498L29.3331 36.2646C29.8788 35.9085 30.4 35.5129 30.903 35.0898C30.9244 35.0716 30.9335 35.0442 30.9548 35.0259L31.0036 34.9894C31.0036 34.9894 32.0004 34.0276 33.1466 32.7281C32.6528 33.0537 32.0004 32.9868 31.5828 32.5668L27.8577 28.8446C26.8487 29.5172 25.672 29.8855 24.4557 29.9007H24.3917C21.386 29.8977 18.801 27.7794 18.2097 24.8395C17.6305 21.8903 19.2126 18.9473 21.9896 17.7939C24.7728 16.6556 27.9735 17.6325 29.644 20.1312C31.028 22.219 31.0219 24.9764 29.641 27.0673L33.3661 30.7894C33.7227 31.1516 33.8325 31.6872 33.6374 32.1559C33.6313 32.1833 33.6039 32.1894 33.5917 32.2107C34.7653 30.829 35.9846 29.1733 36.4205 27.8129V27.7794C37.6033 25.1651 38.216 22.3286 38.2222 19.4647V15.3256C38.2282 14.8356 37.9447 14.3882 37.4997 14.1782Z" fill="white"/>
<path d="M20.7398 22.9221C20.3984 24.669 21.3312 26.4099 22.9742 27.0977C24.6204 27.7764 26.5225 27.2073 27.5193 25.7281C28.504 24.246 28.3089 22.2769 27.056 21.0108C26.0805 20.0338 24.6447 19.6747 23.3248 20.0704C22.0018 20.4782 21.0081 21.5708 20.7398 22.9221Z" fill="white"/>
</svg>
