<svg width="48" height="48" viewBox="0 0 48 48" fill="none" xmlns="http://www.w3.org/2000/svg">
<rect width="48" height="48" rx="10" fill="#5ED582"/>
<path d="M17.1436 18.3252H19.7764V20.9238H17.1436V18.3252ZM17.1436 31.4524H19.7764V34.0511H17.1436V31.4524ZM28.5607 9.77777H19.4449L18.7718 13.4699H29.2338L28.5607 9.77777ZM17.1436 24.8888H19.7764V27.4874H17.1436V24.8888ZM32.4833 12.5126H30.1892L30.4456 13.9149C30.4741 14.0729 30.4307 14.2351 30.3274 14.3587C30.2234 14.4841 30.0692 14.5589 29.9054 14.5635H18.1073C17.9429 14.5621 17.7877 14.489 17.6833 14.3637C17.579 14.2385 17.5364 14.0741 17.567 13.9149L17.822 12.5197H15.5308C14.9463 12.514 14.3842 12.7406 13.971 13.1483C13.5577 13.5562 13.328 14.1108 13.3334 14.6874V36.0488C13.3304 36.6242 13.5598 37.1771 13.971 37.5852C14.3818 37.9928 14.9405 38.2222 15.5233 38.2222H32.4759C33.0592 38.2225 33.6186 37.9931 34.0296 37.5848C34.4408 37.1765 34.67 36.6233 34.6665 36.0478V14.6871C34.6737 14.1116 34.4466 13.5573 34.036 13.1483C33.6257 12.7397 33.0661 12.5107 32.483 12.5126H32.4833ZM20.9551 34.6667C20.9546 34.9687 20.7066 35.2135 20.4003 35.2145H16.5899C16.2837 35.2133 16.036 34.9686 16.0354 34.6667V30.9064C16.0354 30.6047 16.2847 30.3603 16.5902 30.3586H20.4003C20.7059 30.3586 20.9537 30.6047 20.9537 30.9064V34.6667H20.9551ZM20.9551 28.1034C20.9534 28.4046 20.7058 28.6481 20.4003 28.6491H16.5899C16.2844 28.6479 16.037 28.4042 16.0354 28.103V24.3413C16.0354 24.0397 16.2847 23.7953 16.5902 23.7953H20.4003C20.7059 23.7953 20.9537 24.0397 20.9537 24.3413V28.103H20.9551V28.1034ZM20.9551 21.538C20.9546 21.84 20.7066 22.0848 20.4003 22.0858H16.5899C16.2837 22.0846 16.036 21.8399 16.0354 21.538V17.7777C16.0354 17.4764 16.2847 17.2316 16.5902 17.2302H20.4003C20.7059 17.2302 20.9537 17.476 20.9537 17.778V21.538H20.9551ZM31.4371 33.2999H23.2133C22.9066 33.2999 22.6579 33.0547 22.6579 32.7523C22.6579 32.4498 22.9066 32.2046 23.2133 32.2046H31.43C31.6538 32.2053 31.8553 32.3382 31.9415 32.5419C32.0277 32.7455 31.9818 32.9803 31.8249 33.1377C31.722 33.2402 31.5819 33.2981 31.4357 33.2985L31.4371 33.2999ZM31.4371 26.7349H23.2133C22.9067 26.7348 22.6582 26.4897 22.6582 26.1874C22.6582 25.8851 22.9067 25.64 23.2133 25.6399H31.43C31.6542 25.6402 31.8564 25.7733 31.9427 25.9774C32.029 26.1815 31.9825 26.4168 31.8249 26.574C31.722 26.6765 31.5819 26.7344 31.4357 26.7349H31.4371ZM31.4371 20.1716H23.2133C22.9065 20.1716 22.6577 19.9263 22.6577 19.6238C22.6577 19.3212 22.9065 19.0759 23.2133 19.0759H31.43C31.6539 19.0765 31.8557 19.2094 31.9419 19.4133C32.0282 19.6171 31.982 19.852 31.8249 20.0093C31.722 20.1122 31.582 20.1705 31.4357 20.1712H31.4371V20.1716Z" fill="white"/>
</svg>
