<svg width="48" height="48" viewBox="0 0 48 48" fill="none" xmlns="http://www.w3.org/2000/svg">
<rect width="48" height="48" rx="10" fill="#5ED582"/>
<path d="M24.2003 29.8267C24.8641 29.8267 25.4022 30.3648 25.4022 31.0286C25.4022 32.575 26.6601 33.833 28.2066 33.833H32.1623L32.1359 33.8065C31.8181 33.5061 31.6886 33.0567 31.7978 32.6331C31.9069 32.2096 32.2376 31.8789 32.661 31.7695C33.0845 31.6601 33.5339 31.7894 33.8346 32.1071L35.8673 34.139C36.336 34.6083 36.336 35.3685 35.8673 35.8377L33.8354 37.8705C33.6104 38.0962 33.3047 38.2228 32.986 38.2222C32.5163 38.2221 32.0903 37.9466 31.8976 37.5182C31.7048 37.0899 31.7812 36.5883 32.0926 36.2367H28.2066C28.0896 36.2367 27.9742 36.2271 27.8596 36.2191C25.1498 36.0396 22.9984 33.7833 22.9984 31.0286C22.9984 30.3648 23.5365 29.8267 24.2003 29.8267ZM23.1803 25.8028C23.0455 26.1794 22.9745 26.5759 22.9704 26.9758C22.9704 27.1994 22.9952 27.4181 23.0345 27.6337C21.6203 28.1216 20.5947 29.4509 20.5947 31.0286C20.5947 33.0349 21.3815 34.8578 22.6547 36.2191H12.3153C10.9144 36.2178 9.7791 35.0824 9.77777 33.6815C9.77777 29.3371 13.3129 25.8028 17.6573 25.8028H23.1803ZM28.6072 23.7428C29.0927 23.7437 29.5301 24.0364 29.716 24.485C29.9019 24.9336 29.7999 25.4499 29.4573 25.794L29.4309 25.8204H33.0141C35.8858 25.8204 38.2222 28.1569 38.2222 31.0286C38.2222 31.6924 37.6841 32.2305 37.0203 32.2305C36.3566 32.2305 35.8185 31.6924 35.8185 31.0286C35.8185 29.4822 34.5605 28.2242 33.0141 28.2242H29.5006C29.9196 28.6949 29.9006 29.4101 29.4573 29.858C29.2323 30.0835 28.9266 30.2101 28.608 30.2097C28.2995 30.2097 27.9918 30.0927 27.7571 29.8571L27.5175 29.6168L25.7259 27.826C25.7019 27.8019 25.6938 27.7699 25.6714 27.7442C25.2638 27.2734 25.2875 26.5681 25.7259 26.1257L26.0496 25.8028L27.7571 24.0945C27.9822 23.8685 28.2882 23.7416 28.6072 23.742V23.7428ZM22.1972 9.77778C25.9526 9.77778 29.0078 12.833 29.0078 16.5884C29.0078 20.3439 25.9526 23.3991 22.1972 23.3991C18.4417 23.3991 15.3865 20.3439 15.3865 16.5884C15.3865 12.833 18.4417 9.77778 22.1972 9.77778Z" fill="white"/>
</svg>
