<svg width="48" height="48" viewBox="0 0 48 48" fill="none" xmlns="http://www.w3.org/2000/svg">
<rect width="48" height="48" rx="10" fill="#5ED582"/>
<path d="M14.1658 33.2396C13.7785 32.8399 13.6495 32.4398 13.6495 31.7733V19.7759C13.6495 19.2426 13.7785 18.7093 14.1663 18.3092C14.4242 17.9095 14.9404 17.7763 15.4567 17.7763H32.4925C33.0093 17.7763 33.5251 17.909 33.7834 18.3092C34.1703 18.7093 34.2997 19.2426 34.2997 19.7759V21.6419H38.0425V13.777C38.0425 13.2437 37.9131 12.7104 37.7842 12.1775C37.5263 11.6442 37.2679 11.2441 37.01 10.8444C36.6227 10.4443 36.2354 10.1779 35.8485 10.0442C35.3313 9.91146 34.8155 9.77777 34.2992 9.77777H13.5206C13.0043 9.77777 12.617 9.91099 12.1007 10.0442C11.5845 10.3111 11.1976 10.5775 10.9393 10.9776C10.5519 11.3773 10.294 11.7774 10.1651 12.3107C9.90672 12.7104 9.77777 13.2432 9.77777 13.777V33.7734C9.77777 34.3062 9.90672 34.8395 10.0357 35.3724C10.423 36.3058 11.1971 37.1056 12.1007 37.5057C12.6175 37.6385 13.0043 37.7721 13.5206 37.7721H21.0062V33.7729H15.4567C14.94 33.7729 14.4242 33.5065 14.1658 33.2396Z" fill="white"/>
<path d="M29.137 21.7756C29.137 20.9753 28.6208 20.4425 27.8466 20.4425H18.8122C18.0376 20.4425 17.5213 20.9753 17.5213 21.7756C17.5213 22.5753 18.038 23.1087 18.8122 23.1087H27.8466C28.6208 23.1087 29.137 22.5753 29.137 21.7756ZM38.0425 27.9077C37.9131 27.6408 37.7841 27.5076 37.6552 27.3743L34.4287 24.0416C34.0413 23.6415 33.3961 23.5083 32.8799 23.6415C32.3636 23.7747 31.8473 24.3081 31.7184 24.8414C31.5894 25.3747 31.7184 26.0408 32.1052 26.4409L32.4925 26.9742H26.6851C26.1684 26.9742 25.5237 27.2411 25.2653 27.774C25.0071 28.3229 25.0071 28.9583 25.2653 29.5072C25.5232 30.0405 26.0394 30.3069 26.6847 30.3069H36.3643C36.881 30.3069 37.5258 30.0405 37.7841 29.5072C38.1715 28.9739 38.1715 28.4405 38.0425 27.9077ZM37.9131 32.4398C37.6552 31.9065 37.1389 31.64 36.4937 31.64H26.4268C25.9105 31.7733 25.3942 32.3066 25.2653 32.8394C25.1363 33.3732 25.2653 34.0398 25.6526 34.4394L28.8791 37.7721C29.266 38.1723 29.9112 38.3055 30.4275 38.1723C30.9442 38.0386 31.46 37.5057 31.589 36.9724C31.7184 36.4391 31.589 35.7725 31.2021 35.3724L30.8148 34.9728H36.6222C37.1389 34.9728 37.7841 34.7059 38.0425 34.173C38.3004 33.5065 38.3004 32.8399 37.9131 32.4398ZM23.9744 24.4413H18.8117C18.0376 24.4413 17.5213 24.9746 17.5213 25.7744C17.5213 26.5746 18.038 27.1074 18.8122 27.1074H23.9749C24.749 27.1074 25.2653 26.5746 25.2653 25.7744C25.2653 24.9746 24.7485 24.4413 23.9744 24.4413Z" fill="white"/>
</svg>
