<svg width="48" height="48" viewBox="0 0 48 48" fill="none" xmlns="http://www.w3.org/2000/svg">
<rect width="48" height="48" rx="10" fill="#5ED582"/>
<path d="M34.6102 27.7804C33.4936 26.6201 31.8851 25.9572 30.2178 25.9572C28.5509 25.9572 26.9924 26.562 25.8834 27.7804C24.7168 28.8823 24.05 30.4902 24.05 32.0895C24.05 33.7472 24.6584 35.2966 25.8834 36.3989C27.0505 37.5589 28.6093 38.2222 30.2766 38.2222C31.9431 38.2222 33.502 37.6169 34.6102 36.3989C35.7773 35.239 36.4444 33.6892 36.4444 32.0895C36.4444 30.4322 35.8357 28.8823 34.6102 27.7804ZM33.7126 30.2543L28.6443 35.2935L27.0719 35.6724C26.9441 35.7032 26.8095 35.6634 26.7194 35.5681C26.629 35.4732 26.5966 35.3373 26.6348 35.2121L27.0839 33.7429L32.153 28.7053C32.3594 28.4988 32.6402 28.3828 32.933 28.3829C33.2257 28.3829 33.5063 28.4989 33.7127 28.7053C33.92 28.9103 34.0366 29.1891 34.0366 29.4798C34.0366 29.7706 33.92 30.0493 33.7126 30.2543ZM24.9166 26.8255C26.2712 25.3373 28.175 24.5985 30.2115 24.5985C31.5526 24.5985 32.8615 24.9517 33.9896 25.5961V11.8353C33.9896 10.69 33.072 9.77777 31.9682 9.77777H13.5768C12.473 9.77777 11.5555 10.69 11.5555 11.8353V33.9688C11.5555 35.1145 12.473 36.0268 13.6251 36.0268H23.7885C23.0475 34.8763 22.6768 33.5161 22.6768 32.0895C22.6768 30.1358 23.4913 28.1715 24.9166 26.8255ZM26.2784 18.4929H29.7767C30.3772 18.4929 30.8326 18.9524 30.8326 19.5422C30.8326 20.139 30.3291 20.5917 29.7287 20.5917H26.2785C25.6784 20.5917 25.2231 20.132 25.2231 19.5422C25.223 18.9458 25.6852 18.4929 26.2784 18.4929ZM21.5658 23.5284C20.9286 23.5284 20.3463 23.1845 20.0365 22.6417C19.7271 22.0987 19.7271 21.4293 20.0365 20.8862C20.3463 20.3432 20.9466 19.9993 21.5658 19.9993C22.5486 19.9993 23.3312 20.7955 23.3312 21.755C23.3312 22.7504 22.5486 23.5284 21.5658 23.5284ZM18.6255 13.8913C21.1643 13.8913 23.2231 15.9357 23.2231 18.4609C23.2231 18.9669 23.1393 19.4531 22.9864 19.9082C22.5934 19.6075 22.1025 19.4256 21.5649 19.4256C21.1156 19.4256 20.6762 19.5661 20.3009 19.808C20.2857 19.7614 20.2615 19.7182 20.2297 19.6809L19.1735 18.4362C19.0732 18.3264 18.9816 18.1055 18.974 17.9532L18.838 15.7959C18.8274 15.6023 18.6607 15.4449 18.4666 15.4449H18.2693C18.0728 15.4449 17.9063 15.6023 17.8978 15.7951L17.7295 18.4315C17.7186 18.6116 17.8181 18.85 17.9568 18.9743L19.5611 20.3475C19.5919 20.3746 19.6273 20.3953 19.665 20.4107C19.6209 20.4727 19.5764 20.5344 19.5387 20.6008C19.1286 21.3202 19.1286 22.2075 19.5387 22.9269C19.5408 22.9311 19.5438 22.9344 19.5462 22.9386C19.2431 22.9997 18.9346 23.0305 18.6253 23.0305C16.0898 23.0305 14.0309 20.9842 14.0309 18.4609C14.031 15.9357 16.0883 13.8913 18.6255 13.8913ZM20.9295 28.1771H15.8517C15.2517 28.1771 14.7963 27.7176 14.7963 27.1277C14.7963 26.5312 15.2584 26.0784 15.8517 26.0784H20.9777C21.5781 26.0784 22.0334 26.5379 22.0334 27.1277C22.0334 27.7243 21.53 28.1771 20.9295 28.1771ZM22.4403 21.4964H21.8244V20.8839C21.8244 20.8137 21.7988 20.7525 21.7485 20.7023C21.7044 20.6587 21.6257 20.6257 21.5645 20.6257L21.5248 20.6237C21.3982 20.6553 21.3062 20.7648 21.3062 20.8839V21.4965H21.2272L20.6474 21.4945C20.5064 21.5261 20.4152 21.6482 20.4305 21.7853C20.4464 21.9279 20.5557 22.0318 20.6899 22.0318H21.3062V22.6441C21.3062 22.7148 21.3317 22.7763 21.3828 22.8265C21.4263 22.8697 21.5045 22.9026 21.5654 22.9026H21.6143C21.7358 22.8685 21.8244 22.7606 21.8244 22.6442V22.0318H21.9031L22.4831 22.0334C22.6267 22.0016 22.7159 21.8797 22.7003 21.7343C22.7002 21.605 22.5814 21.4964 22.4403 21.4964Z" fill="white"/>
</svg>
