<svg width="48" height="48" viewBox="0 0 48 48" fill="none" xmlns="http://www.w3.org/2000/svg">
<rect width="48" height="48" rx="10" fill="#5ED582"/>
<path d="M38.2222 21.6301V34.602C38.2222 36.6014 36.6014 38.2222 34.602 38.2222H13.398C11.3986 38.2222 9.77777 36.6014 9.77777 34.602V21.6301H38.2222ZM26.8069 24.2418C24.9027 23.9218 22.9585 23.9191 21.0534 24.234L19.3726 24.512C18.6231 24.6354 18.0732 25.2833 18.0732 26.0428V30.047C18.0732 33.2535 22.9269 35.8523 23.8785 35.8523C24.8301 35.8523 29.6837 33.2535 29.6837 30.047H29.6824V26.0389C29.6829 25.2815 29.1364 24.6344 28.3895 24.5081L26.8069 24.2418Z" fill="white"/>
<path d="M34.602 9.77777C36.6014 9.77777 38.2222 11.3986 38.2222 13.398V20.4444H9.77777V13.398C9.77777 11.3986 11.3986 9.77777 13.398 9.77777H34.602ZM17.1856 14.5189H14.2222C13.7313 14.5189 13.3333 14.9169 13.3333 15.4078V16.7111C13.3333 17.202 13.7313 17.6 14.2222 17.6H17.1856C17.6765 17.6 18.0745 17.202 18.0745 16.7111V15.4078C18.0745 14.9169 17.6765 14.5189 17.1856 14.5189Z" fill="white"/>
<path d="M26.0506 27.7404L23.1053 30.8861L21.9158 29.6992C21.768 29.5516 21.5527 29.4941 21.3509 29.5484C21.1492 29.6026 20.9918 29.7603 20.9378 29.9621C20.8839 30.1639 20.9418 30.3791 21.0896 30.5267L22.6928 32.1248C22.8019 32.2348 22.9504 32.2967 23.1053 32.2967C23.1876 32.2952 23.2687 32.2763 23.3432 32.2411C23.4309 32.2122 23.5103 32.1625 23.5746 32.0963L26.9039 28.5395C27.1004 28.3009 27.0777 27.9508 26.8521 27.7396C26.6266 27.5284 26.2757 27.5287 26.0506 27.7404Z" fill="white"/>
</svg>
