<svg width="48" height="48" viewBox="0 0 48 48" fill="none" xmlns="http://www.w3.org/2000/svg">
<rect width="48" height="48" rx="10" fill="#5ED582"/>
<path d="M37.6796 25.1229C35.3059 22.5214 31.6206 21.5649 28.281 22.6837C28.1972 22.711 28.1054 22.6967 28.0339 22.6451C27.9624 22.5935 27.9198 22.5109 27.9193 22.4228V20.3411C27.9193 20.2486 27.893 20.2293 27.8061 20.2293H26.5165C26.4281 20.2293 26.4115 20.2044 26.4115 20.1202V19.1539C26.4115 19.0849 26.3908 19.0683 26.3232 19.0697H25.6328C25.5403 19.0697 25.5113 19.0863 25.5113 19.1829V23.7052L18.3688 20.2734C18.3155 20.2472 18.257 20.2335 18.1976 20.2334H16.2853C16.1997 20.2334 16.1762 20.25 16.179 20.3383V31.7172C16.179 31.7972 16.1969 31.8193 16.2812 31.8193H22.0001C22.1429 31.8187 22.2627 31.927 22.2763 32.0692C22.5097 34.2388 23.5346 36.2464 25.1551 37.7082C25.236 37.782 25.2657 37.8967 25.2307 38.0004C25.1957 38.1042 25.1026 38.1775 24.9935 38.1872C14.1797 38.9437 5.10009 27.3136 12.4248 14.8967C12.4378 14.8737 12.4541 14.8528 12.4731 14.8346C23.0826 4.64011 36.8277 11.251 38.1256 22.3441C38.2084 23.0453 38.1849 24.2021 38.1573 24.9462C38.1526 25.0573 38.0816 25.1548 37.9772 25.1934C37.8729 25.232 37.7555 25.2042 37.6796 25.1229ZM22.2348 30.6542H21.4064C21.3236 30.6542 21.2959 30.6377 21.2959 30.5479V26.1306C21.2959 26.0519 21.307 26.0188 21.4009 26.0201H22.4199C22.482 26.0201 22.5041 26.0353 22.5041 26.103V28.8459C22.5041 28.8678 22.5013 28.8896 22.4958 28.9108C22.3497 29.4831 22.2609 30.0685 22.2307 30.6584L22.2348 30.6542ZM30.2983 18.2815C30.2983 18.2815 30.3079 18.2635 30.3162 18.2815C30.2821 18.6535 30.537 18.9903 30.9044 19.0587C31.0999 19.1094 31.3037 19.1207 31.5036 19.0918C31.6354 19.0807 31.7624 19.0376 31.8737 18.9662C32.0778 18.8279 32.1842 18.5846 32.147 18.3408C32.1323 18.2523 32.1706 18.1632 32.2451 18.1131C32.4501 17.9806 32.5496 17.7336 32.4936 17.496C32.4452 17.2866 32.382 17.0808 32.3044 16.8803C32.1414 16.4232 31.6812 16.142 31.1999 16.2053C30.9325 16.2233 30.6715 16.2947 30.4322 16.4151C30.3673 16.4508 30.2914 16.4606 30.2196 16.4428C29.7193 16.2938 29.1806 16.4915 28.8954 16.9287C28.8481 17.0125 28.7526 17.0569 28.658 17.0391C28.2747 17.0011 27.8961 17.1471 27.6376 17.4325C27.4684 17.6334 27.3593 17.8779 27.3228 18.1379C27.322 18.1773 27.3044 18.2145 27.2745 18.2401C27.1447 18.3561 27.056 18.5111 27.0218 18.6818C26.9402 19.0586 26.9322 19.4477 26.9983 19.8276C27.0163 19.9449 27.048 19.9656 27.1543 19.9021C27.1919 19.8817 27.2234 19.8517 27.2455 19.8151C27.3089 19.7114 27.3352 19.5893 27.32 19.4686C27.3075 19.3984 27.3471 19.3293 27.4139 19.3044C27.6358 19.2153 27.8125 19.0407 27.9041 18.8198C27.9207 18.7743 27.9414 18.7922 27.9717 18.8019C28.093 18.854 28.2264 18.8712 28.357 18.8516C28.6108 18.8102 28.849 18.702 29.0473 18.5382C29.0877 18.5021 29.1455 18.4929 29.1951 18.5148C29.3325 18.57 29.4771 18.6058 29.6245 18.6211C29.8982 18.6777 30.1741 18.5348 30.2858 18.2787L30.2983 18.2815ZM18.7968 30.6584H17.7875C17.7116 30.6584 17.6895 30.6418 17.6895 30.5645V26.1209C17.6895 26.0353 17.713 26.0188 17.7931 26.0201H18.7941C18.8728 26.0201 18.899 26.0353 18.899 26.1209V30.5631C18.8921 30.646 18.8714 30.6598 18.7968 30.6584ZM20.7091 30.5728C20.7091 30.6432 20.6884 30.6598 20.6208 30.6584H19.5908C19.5121 30.6584 19.5024 30.6335 19.5024 30.5645V26.1251C19.5024 26.0409 19.5259 26.0229 19.6073 26.0243H20.6166C20.6871 26.0243 20.7119 26.0353 20.7119 26.1126V30.5783L20.7091 30.5728Z" fill="white"/>
<path d="M31.1087 38.219C25.5279 38.219 21.4437 31.7917 25.8758 25.9332C25.8923 25.9112 25.9118 25.8917 25.9338 25.8752C31.7894 21.4579 38.2222 25.5287 38.2222 31.107C38.2233 32.9936 37.4742 34.8032 36.1399 36.1372C34.8057 37.4712 32.9957 38.2201 31.1087 38.219ZM34.4432 31.3597L32.2216 29.4947C32.0976 29.3913 31.9412 29.3347 31.7798 29.3346C31.4239 29.3229 31.1256 29.6014 31.1129 29.9572C31.1147 30.1359 31.1956 30.3047 31.3338 30.4182L31.6859 30.7136C31.7747 30.7884 31.8072 30.9106 31.7674 31.0196C31.7276 31.1286 31.6238 31.201 31.5078 31.2009H28.2258C28.0011 31.1866 27.7858 31.2931 27.6608 31.4804C27.5359 31.6676 27.5202 31.9073 27.6197 32.1092C27.6291 32.1309 27.6412 32.1512 27.6556 32.17C27.7853 32.3542 28.0008 32.4586 28.2258 32.4461H31.5078C31.6238 32.4459 31.7276 32.5184 31.7674 32.6274C31.8072 32.7364 31.7747 32.8586 31.6859 32.9334L31.3338 33.2288C31.1956 33.3422 31.1147 33.511 31.1129 33.6898C31.1256 34.0456 31.4239 34.324 31.7798 34.3124C31.9412 34.3123 32.0976 34.2557 32.2216 34.1523L34.4432 32.2832C34.5837 32.1708 34.6655 32.0006 34.6655 31.8207C34.6655 31.6408 34.5837 31.4707 34.4432 31.3583V31.3597Z" fill="white"/>
</svg>
