<svg width="48" height="48" viewBox="0 0 48 48" fill="none" xmlns="http://www.w3.org/2000/svg">
<rect width="48" height="48" rx="10" fill="#5ED582"/>
<path d="M35.417 12.1019H32.383C32.077 11.2947 31.3307 10.7365 30.4677 10.6692C29.5716 10.641 28.7758 11.2363 28.5525 12.1019H19.7482C19.4651 11.2115 18.6157 10.6231 17.6799 10.6692C16.7945 10.6738 16.0166 11.2557 15.7646 12.1019H12.7319C11.1451 12.1019 9.85843 13.384 9.85768 14.966V16.3987H38.1328V14.808C38.2435 13.4288 37.2134 12.2206 35.8302 12.1073C35.6928 12.0947 35.5547 12.0928 35.417 12.1019ZM18.4763 14.8026H17.0392V12.1019H18.4763V14.8026ZM31.1016 14.8026H29.6645V12.1019H31.1016V14.8026Z" fill="white"/>
<path d="M20.2982 27.6187H27.4174V31.5022H20.2982V27.6187Z" fill="white"/>
<path d="M9.77777 18.1271V33.5804C9.77777 35.1622 11.064 36.4445 12.6507 36.4445H35.3493C36.936 36.4445 38.2222 35.1622 38.2222 33.5804V18.1271H9.77777ZM29.0617 33.995H27.4174V33.1577H20.2982V34.0166H18.6538V20.6806H29.0617V33.995Z" fill="white"/>
<path d="M20.2982 22.3037H27.4174V25.9793H20.2982V22.3037Z" fill="white"/>
</svg>
