<svg width="48" height="48" viewBox="0 0 48 48" fill="none" xmlns="http://www.w3.org/2000/svg">
<rect width="48" height="48" rx="10" fill="#5ED582"/>
<path d="M10.2466 33.7136C9.62148 34.8285 9.62148 36.2088 10.2466 37.306C10.8718 38.4209 12.0353 39.1111 13.3029 39.1111H37.1456V39.0934C37.7533 38.9872 38.2222 38.4386 38.2222 37.8015C38.2222 37.0937 37.6839 36.5274 37.0066 36.492H13.2856C12.9209 36.5451 12.5562 36.3681 12.3478 36.0496C12.1395 35.731 12.1395 35.324 12.3478 35.0054C12.5562 34.6869 12.9209 34.5099 13.2856 34.563H28.9144C30.1647 34.563 31.3455 33.8728 31.9707 32.7579C32.5958 31.6607 32.5958 30.1388 31.9707 29.0239C31.3455 27.909 30.1821 27.2188 28.9144 27.2188H26.9C26.5701 27.2188 26.2401 27.3604 25.997 27.6081C25.4934 28.1214 25.4934 28.9531 25.997 29.4663C26.2228 29.7141 26.5527 29.8556 26.8826 29.8556H28.9318C29.2964 29.8026 29.6611 29.9795 29.8695 30.2981C30.0779 30.6166 30.0779 31.1652 29.8695 31.4838C29.6611 31.8023 29.2964 31.9793 28.9318 31.9262H13.3029C12.0526 31.9085 10.8892 32.5987 10.2466 33.7136Z" fill="white"/>
<path d="M27.7856 10.8669C26.9174 9.96435 25.9102 9.23878 24.7641 8.74327C23.6179 8.24776 22.4197 8 21.1694 8C19.9191 8 18.7209 8.24776 17.5748 8.74327C16.4287 9.23878 15.4215 9.94666 14.5532 10.8669C12.7993 12.7251 11.8269 15.1672 11.8269 17.7333C11.8269 20.317 12.7993 22.7592 14.5532 24.6174L21.1694 31.5191L27.7856 24.6174C29.5395 22.7592 30.512 20.317 30.512 17.751C30.5294 15.1672 29.5569 12.7251 27.7856 10.8669ZM24.6772 20.1755C23.8784 21.3965 22.5413 22.0867 21.1694 22.0867C20.6311 22.0867 20.0928 21.9805 19.5718 21.7682C17.7311 20.9895 16.6718 18.9721 17.0538 16.99C17.4359 14.9903 19.1724 13.5391 21.1694 13.5391H21.1868C22.2808 13.5391 23.3575 13.9992 24.1389 14.7956C25.5629 16.2114 25.7886 18.4766 24.6772 20.1755Z" fill="white"/>
</svg>
