<svg width="48" height="48" viewBox="0 0 48 48" fill="none" xmlns="http://www.w3.org/2000/svg">
<rect width="48" height="48" rx="10" fill="#5ED582"/>
<path d="M37.9314 19.039L36.3223 17.4498C35.8773 17.0094 35.0841 17.08 34.5506 17.6107L22.4452 29.5877C21.9088 30.1155 21.8375 30.9002 22.2826 31.3406L23.8888 32.9326C24.3339 33.3702 25.1271 33.2996 25.6634 32.7689L37.766 20.7947C38.3023 20.2641 38.3765 19.4793 37.9314 19.039ZM25.1099 34.4089L25.167 34.4569L20.1314 37.0877H30.3196C31.0785 37.0877 31.689 36.4809 31.689 35.7328V28.0267L25.4637 34.1577C25.3524 34.265 25.2298 34.3271 25.1099 34.4089ZM20.6935 30.6603C20.7933 30.3978 20.9331 30.1409 21.1585 29.9207L31.689 19.5499V12.0216C31.689 11.2736 31.0756 10.6667 30.3196 10.6667H11.1472C10.3912 10.6667 9.77777 11.2736 9.77777 12.0216V35.73C9.77777 36.4808 10.3912 37.0849 11.1472 37.0849H17.9203L20.6307 30.6039L20.6935 30.6603ZM13.2014 12.699H27.5807C28.3396 12.699 28.9501 13.0717 28.9501 13.5346C28.9501 13.9975 28.3367 14.3673 27.5807 14.3673H13.2014C12.4454 14.3673 11.832 13.9947 11.832 13.5346C11.832 13.0717 12.4454 12.699 13.2014 12.699ZM13.2014 17.1618H27.5807C28.3396 17.1618 28.9501 17.5542 28.9501 18.0369C28.9501 18.5196 28.3367 18.912 27.5807 18.912H13.2014C12.4454 18.912 11.832 18.5196 11.832 18.0369C11.832 17.5542 12.4454 17.1618 13.2014 17.1618ZM13.2014 23.5328C12.4454 23.5328 11.832 23.1263 11.832 22.6295C11.832 22.1327 12.4454 21.7263 13.2014 21.7263H22.1028C22.8589 21.7263 23.4723 22.1299 23.4723 22.6295C23.4723 23.1292 22.8589 23.5328 22.1028 23.5328H13.2014ZM20.9388 31.4366L18.354 37.3333L24.1085 34.4315L20.9388 31.4366Z" fill="white"/>
</svg>
