<svg width="48" height="48" viewBox="0 0 48 48" fill="none" xmlns="http://www.w3.org/2000/svg">
<rect width="48" height="48" rx="10" fill="#5ED582"/>
<path d="M23.6297 32.8343C23.7127 33.239 23.8414 33.6331 24.0132 34.0091C24.2002 34.4678 24.4591 34.8941 24.7803 35.2721C25.139 35.7427 25.5553 36.167 26.0195 36.535C26.6078 36.9956 27.2521 37.3805 27.9372 37.6805C27.3471 37.798 26.7571 37.9154 26.167 37.9742C25.5769 38.0329 24.8688 38.1211 24.0427 38.1504C23.2166 38.1798 22.2725 38.2092 21.1808 38.2092C20.6498 38.2092 20.0007 38.2385 19.2926 38.2092C18.5846 38.1798 17.8469 38.1798 17.0503 38.1211C16.1357 38.0623 15.5751 38.1211 14.7195 38.0623C13.9524 38.0036 13.3329 37.9448 12.6838 37.8567C12.1475 37.7891 11.6156 37.691 11.0906 37.563C10.648 37.4749 10.3825 37.5336 10.2645 37.4161C10.0874 37.2693 9.91041 36.3 9.82191 35.5364C9.73598 34.5368 9.77563 33.5304 9.93994 32.5406C10.0143 31.9235 10.3198 31.357 10.7955 30.9545C11.2774 30.5802 11.8149 30.2829 12.3887 30.0734C13.0083 29.8678 13.6279 29.6622 14.277 29.4859C14.8915 29.3313 15.4786 29.0836 16.0177 28.7517C16.3679 28.5689 16.6787 28.3194 16.9323 28.0174C17.1312 27.8186 17.2825 27.5776 17.3748 27.3125C17.4569 27.0866 17.4969 26.8478 17.4929 26.6076C17.4929 26.3726 17.4929 26.1083 17.4634 25.7852C17.4578 25.3978 17.2988 25.0283 17.0208 24.7572C16.7596 24.4786 16.4839 24.2139 16.1947 23.9642C16.0204 23.808 15.8799 23.6181 15.7816 23.4061C15.6558 23.1695 15.5474 22.9241 15.4571 22.6719C15.3686 22.3781 15.2801 22.0844 15.1621 21.7614C15.0136 21.7169 14.8739 21.6473 14.749 21.5558C14.6156 21.4326 14.4968 21.2947 14.395 21.1446C14.2412 20.9332 14.1309 20.6936 14.0705 20.4397C13.9628 20.1591 13.9223 19.8574 13.9524 19.5585C13.9874 19.3208 14.0367 19.0854 14.0999 18.8536C14.1776 18.6295 14.3093 18.4278 14.4835 18.2662C14.4787 17.5498 14.5181 16.8337 14.6015 16.1221C14.6772 15.4644 14.8155 14.8153 15.0146 14.1836C15.1878 13.5161 15.4883 12.8879 15.8996 12.3332C16.2245 11.8359 16.6339 11.3986 17.1093 11.0409C17.5162 10.7215 17.9624 10.455 18.437 10.2479C18.8756 10.0763 19.3302 9.94837 19.7942 9.86606C20.2343 9.80747 20.6778 9.77778 21.1218 9.77778C21.6598 9.77386 22.1959 9.84303 22.715 9.98356C23.2031 10.1012 23.6776 10.2685 24.1312 10.4829C24.5427 10.6693 24.9292 10.9061 25.2819 11.1878C25.5917 11.4141 25.8695 11.6808 26.108 11.9808C26.5927 12.5691 26.9538 13.2483 27.1701 13.978C27.3865 14.6586 27.5444 15.3562 27.6422 16.0634C27.7354 16.8236 27.7846 17.5885 27.7897 18.3543C27.9269 18.454 28.0382 18.5849 28.1142 18.7361C28.2036 18.8903 28.2636 19.0596 28.2913 19.2354C28.3503 19.4965 28.3503 19.7674 28.2913 20.0285C28.2767 20.3544 28.1964 20.674 28.0552 20.9683C27.9492 21.1757 27.8097 21.3642 27.6422 21.5264C27.491 21.6714 27.3097 21.7817 27.1111 21.8494C27.0305 22.1584 26.932 22.4624 26.8161 22.76C26.7276 22.9949 26.6095 23.2299 26.4915 23.4943C26.3856 23.7016 26.246 23.8901 26.0785 24.0523C25.7882 24.2901 25.5731 24.6063 25.4589 24.9628C25.3999 25.1097 25.3409 25.2859 25.2819 25.4621C25.2014 25.657 25.1026 25.8438 24.9868 26.0202C24.1017 27.3712 23.6002 28.5754 23.4526 29.6328C23.3323 30.7023 23.3921 31.7843 23.6297 32.8343Z" fill="white"/>
<path d="M37.7207 27.8705C37.4042 27.1385 36.954 26.4712 36.393 25.9027C35.8167 25.3506 35.1477 24.9032 34.4163 24.581C33.6615 24.2594 32.8473 24.0993 32.0264 24.111C31.1979 24.1193 30.378 24.2786 29.6071 24.581C28.8659 24.8852 28.1937 25.3347 27.6304 25.9027C27.0693 26.4712 26.6192 27.1385 26.3027 27.8705C25.9797 28.6219 25.8189 29.4324 25.8307 30.2496C25.8217 31.88 26.47 33.4459 27.6304 34.5965C28.2067 35.1486 28.8757 35.596 29.6071 35.9182C31.1384 36.5936 32.885 36.5936 34.4163 35.9182C35.1516 35.6032 35.8219 35.155 36.393 34.5965C36.9635 34.0357 37.415 33.3665 37.7206 32.6287C38.0475 31.8775 38.2181 31.0682 38.2222 30.2496C38.2152 29.4313 38.0447 28.6226 37.7207 27.8705ZM35.5374 32.2762C35.9325 32.7025 35.9191 33.3632 35.5071 33.7733C35.0952 34.1835 34.4314 34.1968 34.0032 33.8035L31.997 31.8063L29.9907 33.8035C29.5625 34.197 28.8986 34.1837 28.4866 33.7735C28.0745 33.3633 28.0613 32.7025 28.4565 32.2762L30.4627 30.279L28.4565 28.2817C28.0613 27.8555 28.0745 27.1946 28.4866 26.7844C28.8986 26.3742 29.5625 26.361 29.9907 26.7544L31.9969 28.7517L34.0032 26.7544C34.4314 26.361 35.0952 26.3742 35.5073 26.7844C35.9193 27.1946 35.9326 27.8555 35.5374 28.2817L33.5311 30.279L35.5374 32.2762Z" fill="white"/>
</svg>
