<svg width="48" height="48" viewBox="0 0 48 48" fill="none" xmlns="http://www.w3.org/2000/svg">
<rect width="48" height="48" rx="10" fill="#5ED582"/>
<path d="M32.2965 12.2698C33.6059 12.2709 34.6667 13.3177 34.6667 14.6085V34.9967C34.6655 36.2867 33.605 37.3322 32.2965 37.3333H15.7035C14.3946 37.331 13.3345 36.2849 13.3333 34.9946V14.6085C13.3345 13.3182 14.3946 12.2721 15.7035 12.2698L18.2686 12.2681C18.0371 12.6027 17.9004 13.004 17.8923 13.4328C17.9083 14.0235 18.1642 14.5831 18.6026 14.9861C19.041 15.389 19.6252 15.6015 20.224 15.576H27.9573C28.5546 15.6039 29.1382 15.3938 29.5767 14.9931C30.0153 14.5924 30.272 14.0347 30.2891 13.4454C30.2827 13.012 30.1451 12.6061 29.911 12.2681L32.2965 12.2698ZM24 30.498C23.365 30.513 22.8611 31.0303 22.8716 31.6564C22.8821 32.2826 23.403 32.7831 24.0382 32.7775C24.6734 32.7718 25.185 32.2621 25.184 31.6358C25.1746 30.9998 24.6452 30.491 24 30.498ZM24 19.1051C23.3457 19.1051 22.815 19.6274 22.8139 20.2724V27.0509C22.8408 27.6769 23.3634 28.1707 23.9989 28.1707C24.6345 28.1707 25.157 27.6769 25.184 27.0509V20.2724C25.1828 19.6282 24.6534 19.1063 24 19.1051Z" fill="white"/>
<path d="M22.2144 11.3738C21.9865 11.3547 21.7604 11.4265 21.5868 11.5732C21.4131 11.7199 21.3064 11.9292 21.2907 12.1541C21.2758 12.4201 21.0488 12.6261 20.7787 12.6189C20.5544 12.5924 20.3288 12.6578 20.1547 12.7996C19.9806 12.9415 19.873 13.1476 19.8571 13.3697C19.8571 13.8135 20.2581 14.1079 20.7808 14.1079H27.2299C27.4542 14.135 27.6799 14.0703 27.8545 13.9288C28.0291 13.7873 28.1372 13.5814 28.1536 13.3592C28.1382 13.1358 28.0308 12.9284 27.8563 12.785C27.6819 12.6416 27.4555 12.5748 27.2299 12.6C26.9612 12.6119 26.7328 12.4083 26.7179 12.1436C26.7034 11.9194 26.597 11.7107 26.4231 11.5655C26.2493 11.4203 26.023 11.3511 25.7963 11.3738H22.2144Z" fill="white"/>
</svg>
