<svg width="48" height="48" viewBox="0 0 48 48" fill="none" xmlns="http://www.w3.org/2000/svg">
<rect width="48" height="48" rx="10" fill="#5ED582"/>
<path d="M36.4058 28.3193C36.0883 28.1588 35.7539 28.0334 35.4085 27.9453C35.8085 26.7001 36.025 25.3748 36.025 24.0021C36.025 16.7373 29.977 10.8209 22.5465 10.8209C15.1139 10.8209 9.06693 16.7331 9.06693 24C9.06693 31.267 15.115 37.1791 22.5465 37.1791C25.3081 37.1791 27.8788 36.3627 30.0186 34.9637C30.2042 35.2671 30.4239 35.5483 30.6714 35.8033C28.2665 37.3887 25.438 38.2308 22.5465 38.2221C15.6057 38.2221 9.6344 33.4287 8.28079 26.7749C6.92718 20.12 10.5709 13.4589 16.9817 10.862C23.3924 8.26517 30.7855 10.4585 34.6405 16.0989C37.0997 19.6878 37.7507 24.1944 36.4058 28.3193ZM28.4804 18.5746H31.0575V18.6241C31.049 18.6325 31.0351 18.641 31.0351 18.6494C31.0319 18.9096 31.0031 19.1687 30.9839 19.429C30.9679 19.6555 30.9477 19.882 30.9338 20.1095C30.9125 20.4709 30.8837 20.8311 30.8581 21.1914L30.7823 22.2375L30.7066 23.3079L30.6309 24.3656C30.6053 24.7143 30.5775 25.063 30.5551 25.4117C30.5322 25.7578 30.478 26.1012 30.393 26.4378C30.201 27.2225 29.8795 27.9706 29.4415 28.6522C29.0613 29.2384 28.5991 29.7687 28.0687 30.2272C27.7039 30.5432 27.2975 30.8045 26.8954 31.07C25.7977 31.7937 24.6905 32.5059 23.5929 33.2275C23.3668 33.3771 23.1321 33.5172 22.9231 33.691H22.8975C22.4313 33.3792 21.9652 33.0653 21.4969 32.7577C20.7001 32.2341 19.9012 31.7136 19.1022 31.1953C18.3801 30.7265 17.6697 30.2472 17.1001 29.5951C16.8886 29.3581 16.691 29.1094 16.5081 28.8503C15.7805 27.7915 15.3458 26.5633 15.2473 25.2874C15.2181 24.9308 15.1922 24.574 15.1694 24.217C15.1481 23.8589 15.1161 23.5028 15.0947 23.1467C15.0702 22.7969 15.0393 22.4493 15.0179 22.1006C14.9966 21.7424 14.9646 21.3863 14.9432 21.0292C14.9208 20.6763 14.8974 20.3234 14.8664 19.9715C14.8387 19.6628 14.8312 19.3531 14.8131 19.0444C14.811 19.017 14.828 18.9844 14.7886 18.9696V18.5746H17.3646C17.4304 18.5751 17.4952 18.5595 17.5534 18.5293C18.6536 17.9841 19.8408 17.6305 21.0628 17.4842C21.451 17.4379 21.8361 17.3894 22.2286 17.3873C22.2585 17.3873 22.2969 17.4063 22.3161 17.3631H23.5289C23.5439 17.4021 23.5791 17.3862 23.6036 17.3873C23.7497 17.3947 23.8959 17.3978 24.0409 17.4084C24.4089 17.4337 24.7727 17.4811 25.1375 17.5348C26.235 17.702 27.2993 18.0379 28.2916 18.5303C28.35 18.5599 28.4148 18.5751 28.4804 18.5746ZM18.7235 28.9514C19.1812 28.1286 19.4745 27.3975 19.6036 26.7591C19.7316 26.127 19.8094 25.4865 19.8393 24.8439C19.8681 24.2055 19.8958 23.2341 19.9246 21.9289V20.9491C20.2681 20.9491 21.3113 20.907 23.0575 20.8227V21.9289H21.5982C21.1118 21.9289 20.6254 21.9141 20.139 21.8867V22.6948C20.6254 22.6674 21.1118 22.6526 21.5982 22.6526H23.0553V23.7588H20.7822C20.811 24.2402 20.8249 24.7512 20.8249 25.2905C20.8249 25.8299 20.81 26.3693 20.7822 26.9076H21.6409V24.4393H25.6324V26.6517H26.5348C26.4789 25.6882 26.4789 24.7223 26.5348 23.7588H23.8735V22.6526H26.0185C26.4772 22.6526 26.9199 22.6663 27.3487 22.6948V21.8857C26.8623 21.9141 26.4196 21.9278 26.0185 21.9278H23.8735V20.7374C24.6169 20.6805 25.21 20.632 25.6548 20.5888C26.0975 20.5467 26.4911 20.5246 26.8346 20.5246C26.5188 20.1559 26.3332 19.8293 26.2767 19.5448C25.6185 19.8008 24.8313 19.9715 23.9161 20.0568C23.0809 20.1358 22.2436 20.192 21.4052 20.2254C20.6468 20.2538 19.8532 20.2675 19.0233 20.2675C19.0521 20.7226 19.066 21.2473 19.066 21.8435C19.066 22.4114 19.0446 23.2057 19.002 24.2265C18.9593 25.2484 18.8526 26.0775 18.6798 26.7159C18.4908 27.3883 18.1701 28.0175 17.7358 28.5679C18.1358 28.6522 18.4654 28.7807 18.7235 28.9504V28.9514ZM22.8217 28.1423C23.4084 27.6883 23.7369 27.1837 23.8084 26.6306C23.8713 26.1217 23.9641 25.6171 24.0857 25.1199C23.7591 25.0617 23.4298 25.0192 23.0991 24.9924C23.1279 25.1905 23.1279 25.4886 23.0991 25.8858C23.0712 26.2822 22.9546 26.6675 22.7577 27.0141C22.5572 27.3691 22.2212 27.6746 21.7486 27.9295C21.2761 28.1845 20.6393 28.412 19.8393 28.6101C20.1817 28.8366 20.3822 29.0631 20.4398 29.2917C21.4404 28.9788 22.235 28.5964 22.8217 28.1423ZM26.9626 29.1642C27.1631 28.8513 27.3487 28.6248 27.5204 28.4826C27.0463 28.142 26.5523 27.8292 26.0409 27.5461C25.482 27.2342 24.9743 26.9656 24.5167 26.738C24.3765 26.9805 24.2335 27.2214 24.0879 27.4607C25.3753 28.0854 26.3332 28.6533 26.9626 29.1642ZM34.4208 35.9571C36.2533 35.9571 37.7328 34.5159 37.7328 32.7429C37.7328 30.9688 36.249 29.5277 34.4208 29.5277C32.5925 29.5277 31.1087 30.9688 31.1087 32.7429C31.1087 34.5159 32.5914 35.9571 34.4208 35.9571ZM39.88 37.512C40.04 37.6637 40.04 37.9155 39.88 38.0672C39.7203 38.2187 39.468 38.2187 39.3083 38.0672L38.7163 37.4931L37.0096 35.8475C36.2747 36.4274 35.3614 36.7421 34.4208 36.7398C32.1466 36.7398 30.3034 34.9426 30.3034 32.7376C30.3034 30.5327 32.1466 28.7407 34.4218 28.7407C36.696 28.7407 38.5392 30.5327 38.5392 32.7429C38.5392 33.71 38.184 34.597 37.593 35.2881L39.8811 37.512H39.88Z" fill="white"/>
</svg>
