<svg width="48" height="48" viewBox="0 0 48 48" fill="none" xmlns="http://www.w3.org/2000/svg">
<rect width="48" height="48" rx="10" fill="#479AFF"/>
<path d="M39.9937 24.4154C39.9937 25.6789 40.0119 26.946 39.9864 28.2096C39.9718 28.8395 39.6941 29.3784 39.1498 29.728C37.3487 30.8968 35.544 32.0511 33.7393 33.2091C33.6406 33.271 33.6187 33.3474 33.6187 33.453C33.6224 34.9132 33.6187 36.377 33.6187 37.8371C33.6187 38.5727 33.1913 38.9951 32.4533 38.9951C31.4231 38.9951 30.3929 38.9951 29.3663 38.9914C28.7526 38.9914 28.2923 38.5508 28.2923 37.9391C28.2886 35.6487 28.2886 33.3584 28.2923 31.068C28.2923 30.6929 28.4786 30.4126 28.7854 30.2196C29.9874 29.4695 31.193 28.723 32.3985 27.9765C32.5885 27.86 32.7748 27.7362 32.9684 27.627C33.078 27.5651 33.1109 27.4886 33.1109 27.3648C33.1073 25.2128 33.1109 23.0644 33.1073 20.9124C33.1073 19.8273 33.4726 18.8952 34.3128 18.1924C35.3138 17.3513 36.4646 17.1291 37.6994 17.5588C38.916 17.9848 39.6539 18.8697 39.9243 20.1296C39.9754 20.3699 39.99 20.6211 39.99 20.8687C39.9973 22.0522 39.9937 23.2319 39.9937 24.4154C39.99 24.4154 39.99 24.4154 39.9937 24.4154ZM14.8921 24.0257C14.8921 25.1254 14.8957 26.2251 14.8884 27.3211C14.8884 27.4558 14.9286 27.5359 15.0455 27.6088C16.3936 28.4608 17.7416 29.3129 19.0824 30.1759C19.2431 30.2778 19.3856 30.4308 19.4952 30.5873C19.5682 30.6929 19.6048 30.8459 19.6048 30.9806C19.6121 33.2564 19.6121 35.5322 19.6157 37.808C19.6157 38.0301 19.6011 38.2413 19.4842 38.438C19.276 38.7839 18.9691 38.9623 18.5709 38.9623C17.6539 38.9659 16.7406 38.9623 15.8236 38.9623C15.6373 38.9623 15.4474 39.0096 15.2683 38.9805C14.7167 38.8895 14.3806 38.4634 14.3806 37.8736C14.3769 36.8613 14.3806 35.8526 14.3806 34.8404C14.3806 34.3743 14.3769 33.9082 14.3806 33.4421C14.3806 33.3292 14.3441 33.2673 14.2491 33.2054C12.4407 32.0439 10.6287 30.8823 8.82763 29.7098C8.2979 29.3675 8.0166 28.8395 8.01295 28.2278C7.99103 25.7408 8.00199 23.2501 8.0093 20.7631C8.01295 19.1792 9.05048 17.8501 10.5885 17.4459C12.5284 16.9325 14.5194 18.2215 14.8336 20.2024C14.8701 20.4209 14.8884 20.6466 14.8884 20.8687C14.8957 21.9211 14.8921 22.9734 14.8921 24.0257Z" fill="white"/>
<path d="M23.985 27.1099H17.5736C17.1169 27.1099 16.7516 26.9351 16.5433 26.5127C16.2072 25.8355 16.6712 25.0344 17.4274 25.0125C18.1764 24.9907 18.9253 25.0052 19.6742 25.0052C19.7728 25.0052 19.8715 24.998 19.9701 25.0052C20.1016 25.0162 20.1601 24.9725 20.1491 24.8305C20.1382 24.6411 20.1455 24.4481 20.1455 24.2551C20.1455 22.795 20.1382 21.3312 20.1491 19.871C20.1601 18.3563 21.1282 16.9507 22.5347 16.3754C24.6573 15.5051 27.0501 16.674 27.6749 18.9061C27.7771 19.2739 27.8173 19.6708 27.821 20.0567C27.8393 21.6334 27.8356 23.2064 27.8393 24.7831C27.8393 25.0125 27.8393 25.0125 28.0658 25.0125C28.8731 25.0162 29.6768 25.0125 30.4842 25.0198C31.0103 25.0234 31.456 25.3876 31.5291 25.8682C31.635 26.5746 31.1637 27.1099 30.4294 27.1099C28.7672 27.1135 27.1013 27.1135 25.4391 27.1172H23.9887C23.9851 27.1135 23.985 27.1135 23.985 27.1099ZM11.2644 16.6448C9.5181 16.6448 8.16639 15.3085 8.15543 13.5934C8.14447 11.9294 9.53271 10.542 11.2497 10.5384C12.9851 10.5348 14.3733 11.9257 14.366 13.5898C14.3623 15.3085 13.0143 16.6412 11.2644 16.6448ZM36.4719 16.6449C34.7184 16.6376 33.363 15.283 33.3813 13.5425C33.3995 11.8638 34.8133 10.5202 36.4975 10.542C38.2072 10.5675 39.5699 11.9185 39.5553 13.6153C39.5443 15.3158 38.1817 16.6521 36.4719 16.6449ZM27.0136 11.9439C27.0063 13.6335 25.6436 14.9917 23.9595 14.9881C22.2424 14.9808 20.8944 13.6262 20.8944 11.9257C20.8944 10.2216 22.3192 8.88526 23.9558 8.88889C25.5779 8.88526 27.0246 10.2107 27.0136 11.9439ZM24.5184 33.5623V29.0689C24.5184 28.5446 24.9093 28.0931 25.4098 28.0275C25.9505 27.9583 26.44 28.2715 26.5752 28.7885C26.6044 28.8978 26.6154 29.0143 26.6154 29.1272C26.6154 32.0584 26.6118 34.9933 26.6044 37.9245C26.6044 38.1066 26.5825 38.3032 26.5168 38.4707C26.3378 38.9295 25.8409 39.1771 25.3441 39.0825C24.8801 38.9951 24.5184 38.5581 24.5184 38.0665C24.5148 36.57 24.5184 35.0661 24.5184 33.5623ZM23.4736 33.5513V38.0629C23.4736 38.5217 23.1886 38.915 22.7612 39.057C22.089 39.2791 21.3949 38.7912 21.3949 38.0775C21.3912 36.184 21.3949 34.2942 21.3949 32.4007V29.1199C21.3949 28.5446 21.7456 28.1404 22.3192 28.0494C22.9037 27.9583 23.4772 28.4426 23.4772 29.0289C23.4772 30.5327 23.4772 32.0439 23.4736 33.5513C23.4736 33.5513 23.4772 33.5513 23.4736 33.5513Z" fill="white"/>
</svg>
