<svg width="48" height="48" viewBox="0 0 48 48" fill="none" xmlns="http://www.w3.org/2000/svg">
<rect width="48" height="48" rx="10" fill="#479AFF"/>
<path d="M31.7523 9.77777L31.752 26.7802C29.7018 27.0532 28.1482 28.3447 28.1452 29.8965V35.7186H27.0217L27.0213 38.6409L9.77777 38.6414V14.4374L14.4441 9.77777H31.7523ZM23.2522 29.9269C22.6295 29.9269 22.1254 30.4743 22.1254 31.1467C22.1254 31.8192 22.6295 32.3666 23.2522 32.3666C23.8748 32.3666 24.379 31.8192 24.379 31.1467C24.379 30.8224 24.2605 30.5115 24.0507 30.2851C23.8376 30.0553 23.5499 29.9269 23.2522 29.9269ZM16.4879 29.9269C15.8653 29.9269 15.3611 30.4743 15.3611 31.1467C15.3611 31.8192 15.8653 32.3666 16.4879 32.3666C17.1105 32.3666 17.6147 31.8192 17.6147 31.1467C17.6147 30.8224 17.4963 30.5115 17.2865 30.2851C17.0733 30.0553 16.7857 29.9269 16.4879 29.9269ZM28.8862 15.2856H26.6326V27.4839H24.379V20.1649H15.3611V27.4873H13.1075V29.9269H27.7594V16.5054H28.8862V15.2856ZM20.9985 21.3847V26.264H18.7449V21.3847H20.9985Z" fill="white"/>
<path d="M27.9527 36.3057H36.9097V38.5054H27.9527V36.3057ZM35.6543 30.2302C35.6509 28.7569 34.2365 27.5675 32.4938 27.5675C30.7512 27.5675 29.3367 28.7569 29.3333 30.2268V35.5555H35.6543V30.2302Z" fill="white"/>
</svg>
