<svg width="48" height="48" viewBox="0 0 48 48" fill="none" xmlns="http://www.w3.org/2000/svg">
<rect width="48" height="48" rx="10" fill="#479AFF"/>
<g clip-path="url(#clip0_106:2256)">
<path d="M24.3838 31.7135C24.185 32.0891 23.7977 32.3266 23.3731 32.3333H16.6273C16.0047 32.3333 15.5 31.8281 15.5 31.205C15.5 30.5818 16.0047 30.0766 16.6273 30.0766H21.0933L20.7564 29.6526C20.3623 29.1714 20.4755 28.469 20.9535 28.0717C21.4302 27.6785 22.1333 27.7904 22.5261 28.2703L24.2677 30.5285C24.5291 30.8691 24.5736 31.3291 24.3824 31.7135H24.3838ZM23.3697 35.5945H18.9322L19.269 36.0224C19.6616 36.5048 19.5484 37.211 19.072 37.6067C18.865 37.7486 18.6214 37.8273 18.3706 37.8333C18.0218 37.8369 17.6907 37.6802 17.4722 37.4082L15.7313 35.1456C15.4705 34.8028 15.4266 34.3415 15.6181 33.9556C15.817 33.5806 16.2028 33.3426 16.6269 33.3333H23.3697C23.9939 33.3333 24.5 33.8398 24.5 34.4646C24.5 35.0894 23.9939 35.5959 23.3697 35.5959V35.5945ZM25.4918 25.6667H14.5096C10.9145 25.6667 8 28.5675 8 32.1459V40H32V32.1459C32 28.5681 29.0864 25.6674 25.4918 25.6667ZM33.5232 25.6667H27.3333C31.2532 25.669 34.4294 28.8464 34.4286 32.7647V40H40V32.1465C40.0015 30.4285 39.3197 28.7803 38.1049 27.5649C36.8901 26.3495 35.2419 25.6667 33.5232 25.6667ZM28.4871 8C27.4593 7.99968 26.4425 8.21019 25.5 8.61839C27.6386 10.2693 28.8901 12.812 28.8901 15.5062C28.8901 18.2003 27.6386 20.743 25.5 22.3939C28.3086 23.5917 31.5658 22.9819 33.7455 20.8503C35.9252 18.7186 36.5958 15.4874 35.4431 12.6704C34.2903 9.85331 31.5426 8.00842 28.4871 8ZM12.5 15.5C12.5 19.6421 15.8579 23 20 23C24.1421 23 27.5 19.6421 27.5 15.5C27.5 11.3579 24.1421 8 20 8C15.8579 8 12.5 11.3579 12.5 15.5Z" fill="white"/>
</g>
<defs>
<clipPath id="clip0_106:2256">
<rect width="32" height="32" fill="white" transform="translate(8 8)"/>
</clipPath>
</defs>
</svg>
