<svg width="48" height="48" viewBox="0 0 48 48" fill="none" xmlns="http://www.w3.org/2000/svg">
<rect width="48" height="48" rx="10" fill="#479AFF"/>
<path d="M28.8 11.2C28.8 12.9829 30.2171 14.4 32 14.4C33.7829 14.4 35.2 12.9829 35.2 11.2H36.8C38.5829 11.2 40 12.6171 40 14.4V17.6H8V14.4C8 12.6171 9.41714 11.2 11.2 11.2H12.8C12.8 12.9829 14.2171 14.4 16 14.4C17.7829 14.4 19.2 12.9829 19.2 11.2H28.8ZM40 19.2V36.8C40 38.5829 38.5829 40 36.8 40H11.2C9.41714 40 8 38.5829 8 36.8V19.2H40ZM16 8C16.8686 8 17.6 8.73143 17.6 9.6V11.2C17.6 12.0686 16.8686 12.8 16 12.8C15.1314 12.8 14.4 12.0686 14.4 11.2V9.6C14.4 8.73143 15.1314 8 16 8ZM32 8C32.8686 8 33.6 8.73143 33.6 9.6V11.2C33.6 12.0686 32.8686 12.8 32 12.8C31.1314 12.8 30.4 12.0686 30.4 11.2V9.6C30.4 8.73143 31.0857 8 32 8ZM21.2571 34.0571C21.8971 34.6971 22.9029 34.6971 23.5429 34.0571L31.2229 26.3771C31.68 25.92 31.68 25.2343 31.2229 24.7771C30.7657 24.32 30.08 24.32 29.6229 24.7771L22.4 32L18.4229 28.0229C17.9657 27.5657 17.28 27.5657 16.8229 28.0229C16.3657 28.48 16.3657 29.1657 16.8229 29.6229L21.2571 34.0571Z" fill="white"/>
</svg>
