<svg width="51" height="54" viewBox="0 0 51 54" fill="none" xmlns="http://www.w3.org/2000/svg">
<path d="M23.5 0L50.5 28V54L7.62939e-06 0H23.5Z" fill="#F06460"/>
<path d="M23.8649 7.04894C22.849 6.617 21.7237 5.86902 20.4959 4.78616L20.1129 5.51087C20.5257 5.88894 20.9583 6.24863 21.4051 6.57062L20.0471 7.83287L18.6072 6.28374L18.0007 6.84746L19.4284 8.3834C18.1683 9.40723 16.832 9.72777 15.4384 9.35208L15.4642 10.2127C17.0487 10.5954 18.5597 10.1985 20.0166 9.01624L21.5362 10.6511L18.5171 13.4574L19.0992 14.0837L22.1183 11.2773L23.4847 12.7473L24.0912 12.1836L22.7248 10.7136L25.1111 8.49547L24.529 7.86923L22.1427 10.0873L20.6354 8.4657L22.1515 7.0564C22.6185 7.3473 23.1123 7.60096 23.6391 7.82398L23.8649 7.04894ZM24.3993 16.8246C23.6298 16.4462 22.808 15.9322 21.9531 15.2769L21.4202 15.9197C22.2449 16.5293 23.0361 17.0104 23.806 17.376L24.3993 16.8246ZM28.1992 11.6459C27.2677 12.0449 26.3525 12.3426 25.4599 12.5457C25.2743 12.5707 25.1221 12.5524 24.9907 12.4903L24.5642 13.1816C24.9224 13.4876 25.281 13.7809 25.6335 14.0676C24.8323 14.2103 24.2317 14.2648 23.8313 14.2438C23.6786 14.2382 23.5335 14.2011 23.3898 14.1258L22.9761 14.8175C23.6557 15.39 24.4318 15.9342 25.3045 16.4501L25.8714 15.9231C25.3352 15.6106 24.831 15.2929 24.3658 14.9511C25.1761 14.9106 26.3485 14.7178 27.8704 14.3722L27.5662 13.6351C27.1997 13.73 26.8465 13.8126 26.5191 13.8835C26.2467 13.6697 25.9814 13.4371 25.716 13.2046C26.5159 13.1001 27.4485 12.8476 28.5195 12.4664L28.1992 11.6459ZM29.0476 14.2242L28.7641 14.4877C26.6556 16.423 24.7473 17.4104 23.0321 17.4687L23.0584 18.3167C24.3463 18.2746 25.7343 17.7585 27.2093 16.7807C26.8271 17.48 26.5585 18.2089 26.3973 18.9608C25.6973 18.948 24.9769 18.7943 24.2362 18.4998L23.9875 19.3823C24.7404 19.69 25.505 19.8516 26.2687 19.8668C26.2068 20.5141 26.2331 21.1901 26.3474 21.8948L27.2486 21.8067C27.1078 21.1265 27.0557 20.4623 27.0855 19.8202C28.0964 19.6916 29.1241 19.277 30.1554 18.5887L30.5048 18.2639L29.745 17.4465C30.239 17.1716 30.8055 16.8293 31.4573 16.4201L31.8462 16.0586L29.0767 13.079L28.49 13.6243L29.0476 14.2242ZM27.1755 18.9256C27.3624 17.818 27.808 16.7771 28.5123 15.8031C28.775 15.5834 29.051 15.3515 29.3278 15.0941L29.6113 14.8307L30.6652 15.9645C29.7525 16.5425 29.0428 16.9687 28.5299 17.2365L29.3755 18.1462C28.6724 18.5663 27.9433 18.8263 27.1755 18.9256ZM34.4715 19.6761L33.8716 20.2337L35.4096 21.8883L34.8889 22.3724L33.5224 20.9023L31.5646 22.7222L32.9004 24.1592C32.4879 24.4689 32.1045 24.6778 31.756 24.8052C31.686 24.2804 31.6928 23.7458 31.7698 23.2073L30.9929 23.0324C30.9065 23.6534 30.8903 24.2705 30.9571 24.8843C30.4374 24.8143 29.8569 24.4938 29.2282 23.9232L28.9125 24.7204C29.7165 25.3739 30.4487 25.7254 31.1158 25.7689C31.3646 26.8032 31.8762 27.7899 32.6502 28.7416L33.391 28.3356C32.683 27.4946 32.1931 26.6106 31.9279 25.6775C32.3786 25.5412 32.899 25.2418 33.4886 24.7921L34.9285 26.3412L36.8864 24.5214L35.471 22.9986L35.9917 22.5145L37.64 24.2878L38.2399 23.7302L36.5916 21.9569L37.2113 21.381L36.6292 20.7547L36.0095 21.3307L34.4715 19.6761ZM34.9435 25.2337L34.0734 24.2976L34.9172 23.5133L35.7873 24.4494L34.9435 25.2337ZM33.4913 23.6714L32.6703 22.788L33.514 22.0037L34.3351 22.8871L33.4913 23.6714ZM31.26 20.2529L27.7926 23.4759L28.3808 24.1088L32.8172 19.985C33.5115 19.8066 34.1761 19.5698 34.8242 19.2623L34.5496 18.4117C33.2459 19.0582 31.9148 19.4108 30.5497 19.4755L30.0672 20.3049C30.4686 20.3004 30.8704 20.2833 31.26 20.2529ZM38.1149 27.1517L39.5242 28.6679L38.5156 29.6054L37.1063 28.0892L38.1149 27.1517ZM36.4956 28.5955L37.9355 30.1446L36.0568 31.8909L36.645 32.5237L38.5237 30.7774L40.0433 32.4123L39.0611 33.3252C38.804 33.5642 38.568 33.5747 38.3719 33.3638C38.1636 33.1396 37.9562 32.8901 37.737 32.6146L37.2771 33.3492L37.9818 34.1073C38.4475 34.6083 38.9369 34.6326 39.4313 34.173L44.3951 29.5591L39.6954 24.503L36.4653 27.5054C35.5829 28.301 34.6744 28.7646 33.7399 28.896L33.7587 29.7755C34.6792 29.6818 35.5914 29.2884 36.4956 28.5955ZM40.6234 31.8731L39.1038 30.2382L40.1124 29.3007L41.632 30.9356L40.6234 31.8731ZM42.2055 30.4025L40.6859 28.7677L41.6747 27.8485L43.1943 29.4834L42.2055 30.4025ZM41.0865 27.2157L40.0977 28.1348L38.6884 26.6186L39.6772 25.6995L41.0865 27.2157Z" fill="white"/>
</svg>
