<svg width="16" height="16" viewBox="0 0 16 16" fill="none" xmlns="http://www.w3.org/2000/svg">
<rect width="16" height="16" rx="8" fill="#B3C6DC"/>
<path d="M9.66667 3C9.97333 3 10.2222 3.24889 10.2222 3.55556V5.77778C10.2222 6.08444 9.97333 6.33333 9.66667 6.33333H8.55556V7.44444H10.7778C11.0844 7.44444 11.3333 7.69333 11.3333 8V9.66667H12.4444C12.7511 9.66667 13 9.91556 13 10.2222V12.4444C13 12.7511 12.7511 13 12.4444 13H9.11111C8.80444 13 8.55556 12.7511 8.55556 12.4444V10.2222C8.55556 9.91556 8.80444 9.66667 9.11111 9.66667H10.2222V8.55556H5.77778V9.66667H6.88889C7.19556 9.66667 7.44444 9.91556 7.44444 10.2222V12.4444C7.44444 12.7511 7.19556 13 6.88889 13H3.55556C3.24889 13 3 12.7511 3 12.4444V10.2222C3 9.91556 3.24889 9.66667 3.55556 9.66667H4.66667V8C4.66667 7.69333 4.91556 7.44444 5.22222 7.44444H7.44444V6.33333H6.33333C6.02667 6.33333 5.77778 6.08444 5.77778 5.77778V3.55556C5.77778 3.24889 6.02667 3 6.33333 3H9.66667ZM6.33333 10.7778H4.11111V11.8889H6.33333V10.7778ZM11.8889 10.7778H9.66667V11.8889H11.8889V10.7778ZM9.11111 4.11111H6.88889V5.22222H9.11111V4.11111Z" fill="white"/>
</svg>
