<svg width="80" height="32" viewBox="0 0 80 32" fill="none" xmlns="http://www.w3.org/2000/svg">
<rect width="80" height="32" rx="16" fill="#FCB306" fill-opacity="0.2"/>
<path d="M51.186 10.108H42.17V14.686C42.17 15.526 42.618 15.96 43.514 15.96H51.55C52.138 15.946 52.544 15.736 52.74 15.316C52.866 15.036 52.964 14.588 53.02 13.944L52.11 13.65C52.054 14.238 51.984 14.616 51.886 14.77C51.774 14.938 51.564 15.036 51.27 15.05H43.878C43.402 15.05 43.164 14.812 43.164 14.336V13.398H51.186V10.108ZM43.164 12.488V11.018H50.206V12.488H43.164ZM40.616 18.046V18.956H44.116C43.836 20.23 42.954 21.084 41.47 21.504L42.002 22.372C43.71 21.784 44.746 20.636 45.096 18.956H48.904V22.316H49.912V18.956H53.412V18.046H49.912V16.506H48.904V18.046H45.222C45.236 17.724 45.25 17.206 45.25 16.492H44.242C44.242 17.15 44.228 17.668 44.214 18.046H40.616ZM60.482 16.744V17.864H56.1V21.756H57.094V18.788H60.482V22.428H61.518V18.788H64.976V20.188C64.976 20.552 64.766 20.748 64.374 20.748L63.31 20.706L63.576 21.672H64.696C65.536 21.672 65.97 21.252 65.97 20.412V17.864H61.518V16.744H64.626V13.664H57.402V16.744H60.482ZM60.482 9.492V11.634H58.452C58.158 10.92 57.822 10.304 57.458 9.786L56.506 10.136C56.87 10.598 57.192 11.102 57.458 11.634H55.176V14.476H56.212V12.586H65.788V14.462H66.824V11.634H64.36C64.696 11.186 65.032 10.654 65.354 10.038L64.416 9.688C64.108 10.374 63.73 11.018 63.296 11.634H61.518V9.492H60.482ZM63.66 15.89H58.382V14.518H63.66V15.89Z" fill="#FCB306"/>
<path d="M16 26C10.477 26 6 21.523 6 16C6 10.477 10.477 6 16 6C21.523 6 26 10.477 26 16C26 21.523 21.523 26 16 26ZM15 19V21H17V19H15ZM15 11V17H17V11H15Z" fill="#FCB306"/>
</svg>
