<svg width="80" height="32" viewBox="0 0 80 32" fill="none" xmlns="http://www.w3.org/2000/svg">
<rect width="80" height="32" rx="16" fill="#2AB855" fill-opacity="0.2"/>
<path d="M16 26C10.477 26 6 21.523 6 16C6 10.477 10.477 6 16 6C21.523 6 26 10.477 26 16C26 21.523 21.523 26 16 26ZM15.003 20L22.073 12.929L20.659 11.515L15.003 17.172L12.174 14.343L10.76 15.757L15.003 20Z" fill="#5ED582"/>
<path d="M46.888 11.284V20.804H43.948V14.084H42.968V20.804H40.77V21.784H53.244V20.804H47.91V16.324H51.942V15.358H47.91V11.284H52.656V10.29H41.596V11.284H46.888ZM60.482 16.744V17.864H56.1V21.756H57.094V18.788H60.482V22.428H61.518V18.788H64.976V20.188C64.976 20.552 64.766 20.748 64.374 20.748L63.31 20.706L63.576 21.672H64.696C65.536 21.672 65.97 21.252 65.97 20.412V17.864H61.518V16.744H64.626V13.664H57.402V16.744H60.482ZM60.482 9.492V11.634H58.452C58.158 10.92 57.822 10.304 57.458 9.786L56.506 10.136C56.87 10.598 57.192 11.102 57.458 11.634H55.176V14.476H56.212V12.586H65.788V14.462H66.824V11.634H64.36C64.696 11.186 65.032 10.654 65.354 10.038L64.416 9.688C64.108 10.374 63.73 11.018 63.296 11.634H61.518V9.492H60.482ZM63.66 15.89H58.382V14.518H63.66V15.89Z" fill="#2AB855"/>
</svg>
