<svg width="20" height="20" viewBox="0 0 20 20" fill="none" xmlns="http://www.w3.org/2000/svg">
<path fill-rule="evenodd" clip-rule="evenodd" d="M10 1.9375C11.1703 1.9375 11.9115 2.15919 12.305 2.69873C12.8975 3.51131 12.8125 4.77452 12.8125 6.14286C12.8125 7.31182 12.4423 8.37573 11.8725 9.15717C11.3681 9.84897 10.703 10.3482 10 10.3482C9.29705 10.3482 8.63195 9.84897 8.12751 9.15717C7.55771 8.37573 7.1875 7.31182 7.1875 6.14505C7.19086 4.70773 7.15288 3.47505 7.72586 2.68925C8.1218 2.14625 8.85656 1.9375 10 1.9375Z" stroke="#979797" stroke-width="1.875"/>
<path fill-rule="evenodd" clip-rule="evenodd" d="M13.242 12.8661C13.9939 12.8661 14.715 13.0738 15.3362 13.4475C15.9575 13.8212 16.4788 14.361 16.831 15.0253L17.2968 15.9035C17.487 16.2622 17.5138 16.664 17.4034 17.0237C17.293 17.3834 17.0454 17.701 16.6867 17.8912C16.4745 18.0037 16.238 18.0625 15.9979 18.0625H4.00212C3.59614 18.0625 3.22859 17.898 2.96253 17.6319C2.69648 17.3659 2.53192 16.9983 2.53192 16.5923C2.53192 16.3522 2.59075 16.1157 2.70326 15.9035L3.16898 15.0253C3.52124 14.361 4.04257 13.8212 4.66379 13.4475C5.28502 13.0738 6.00616 12.8661 6.75805 12.8661H13.242Z" stroke="#979797" stroke-width="1.875"/>
</svg>
