<svg width="20" height="20" viewBox="0 0 20 20" fill="none" xmlns="http://www.w3.org/2000/svg">
<path d="M14 8H6C4.34315 8 3 9.34315 3 11V15C3 16.6569 4.34315 18 6 18H14C15.6569 18 17 16.6569 17 15V11C17 9.34315 15.6569 8 14 8Z" stroke="#479AFF" stroke-width="2"/>
<path d="M11 12C11 11.4477 10.5523 11 10 11C9.44772 11 9 11.4477 9 12V14C9 14.5523 9.44772 15 10 15C10.5523 15 11 14.5523 11 14V12Z" fill="#479AFF"/>
<path fill-rule="evenodd" clip-rule="evenodd" d="M10 2C12.2091 2 14 3.79086 14 6V7.95789H6V6C6 3.79086 7.79086 2 10 2Z" stroke="#479AFF" stroke-width="2"/>
</svg>
