<svg width="16" height="16" viewBox="0 0 16 16" fill="none" xmlns="http://www.w3.org/2000/svg">
<path d="M8.0005 0C12.3999 0 16 3.59978 16 8.00002C16 12.4002 12.3999 16 8.0005 16C3.60008 16 0 12.4002 0 8.00002C0 3.59978 3.60011 0 8.0005 0ZM8.00038 2C4.70008 2 2 4.69983 2 8.00002C2 11.3001 4.70006 14 8.00038 14C11.2999 14 14 11.3001 14 8.00002C14 4.69983 11.2999 2 8.00038 2Z" fill="#999999"/>
<path d="M10.5803 10.5801C10.3486 10.8119 9.97286 10.812 9.74101 10.5803C9.74096 10.5803 9.74092 10.5802 9.74087 10.5802L8.00053 8.83987L6.26135 10.5797C6.02925 10.8118 5.6529 10.812 5.42059 10.5801C5.1885 10.3483 5.18822 9.97231 5.41996 9.74023C5.42007 9.74011 5.42019 9.74 5.42031 9.73988L7.16044 8.00002L5.4203 6.26012C5.18837 6.02822 5.18835 5.65222 5.42024 5.42029C5.42036 5.42017 5.42047 5.42006 5.42059 5.41994C5.6529 5.18798 6.02925 5.18815 6.26135 5.42033L8.00053 7.16013L9.74087 5.4198C9.97265 5.18803 10.3484 5.18803 10.5802 5.41981C10.5803 5.41985 10.5803 5.4199 10.5803 5.41994C10.8122 5.65191 10.8121 6.02784 10.5803 6.25977L8.84065 8.00002L10.5803 9.74023C10.8121 9.97216 10.8122 10.3481 10.5803 10.5801Z" fill="#999999"/>
</svg>
