<svg width="14" height="6" viewBox="0 0 14 6" fill="none" xmlns="http://www.w3.org/2000/svg">
<path d="M12.2509 0.935806C12.4265 1.21403 12.3623 1.56006 12.1168 1.77029L12.9631 2.27211C13.3034 2.47382 13.4019 2.89175 13.1832 3.20557C12.9801 3.49698 12.5749 3.59616 12.2456 3.44734L12.171 3.40857L10.6513 2.50857C10.4 2.60985 10.145 2.70065 9.88714 2.78096L10.7228 4.09133C10.9277 4.413 10.811 4.82694 10.4622 5.0159C10.1383 5.19135 9.72819 5.11112 9.50721 4.84121L9.4597 4.77559L8.40683 3.12286C8.12923 3.16552 7.85004 3.19676 7.5701 3.21658L7.56979 4.72449C7.56979 5.09755 7.24186 5.39998 6.83735 5.39998C6.46173 5.39998 6.15215 5.13921 6.10984 4.80326L6.10491 4.72449L6.10539 3.21617C5.80873 3.19501 5.51289 3.16101 5.21888 3.11418L4.30294 4.73204C4.11579 5.06277 3.67336 5.19097 3.31474 5.01838C2.98174 4.85811 2.8381 4.49484 2.96911 4.17896L3.00426 4.10702L3.76096 2.77057C3.50664 2.69038 3.25512 2.59998 3.00714 2.49934L1.77638 3.3637C1.45462 3.5898 0.995041 3.53253 0.749881 3.23579C0.523579 2.96188 0.55908 2.57966 0.818952 2.34465L0.888572 2.28911L1.58967 1.79597C1.31986 1.59046 1.24142 1.22972 1.42112 0.940095C1.60767 0.639425 2.00684 0.521128 2.34402 0.65411L2.4206 0.68929L2.83918 0.910185C5.15866 2.13423 7.97202 2.21247 10.3534 1.14801C10.3755 1.13438 10.399 1.12391 10.423 1.11463C10.5047 1.07909 10.5854 1.04054 10.6656 1.00066L10.8932 0.882961L11.2494 0.691765C11.5991 0.504114 12.0474 0.613375 12.2509 0.935806Z" fill="#999999"/>
</svg>
