<svg width="16" height="12" viewBox="0 0 16 12" fill="none" xmlns="http://www.w3.org/2000/svg">
<path fill-rule="evenodd" clip-rule="evenodd" d="M13.3564 5.79155C13.3565 5.79151 13.3557 5.79498 13.3533 5.80211C13.3551 5.79517 13.3562 5.7916 13.3564 5.79155ZM13.2637 5.99996C13.2212 5.91931 13.1635 5.82051 13.0876 5.70547C12.8222 5.30316 12.4058 4.81085 11.8649 4.33537C10.7563 3.36072 9.37397 2.66663 7.99999 2.66663C6.62601 2.66663 5.24371 3.36072 4.13506 4.33537C3.5942 4.81085 3.1778 5.30316 2.91239 5.70547C2.83649 5.82051 2.77883 5.9193 2.73628 5.99996C2.77883 6.08062 2.83649 6.1794 2.91239 6.29445C3.1778 6.69676 3.5942 7.18906 4.13506 7.66455C5.24371 8.6392 6.62601 9.33329 7.99999 9.33329C9.37397 9.33329 10.7563 8.6392 11.8649 7.66455C12.4058 7.18906 12.8222 6.69676 13.0876 6.29445C13.1635 6.17941 13.2212 6.08062 13.2637 5.99996ZM2.6436 5.79155C2.64375 5.79161 2.64493 5.79517 2.64668 5.8021C2.64432 5.79497 2.64345 5.7915 2.6436 5.79155ZM2.6436 6.20836C2.64345 6.20842 2.64432 6.20495 2.64668 6.19781C2.64493 6.20474 2.64375 6.20831 2.6436 6.20836ZM13.3533 6.19782C13.3557 6.20495 13.3565 6.20842 13.3564 6.20836C13.3562 6.20831 13.3551 6.20474 13.3533 6.19782ZM7.99999 11.3333C12.0501 11.3333 15.3333 7.33329 15.3333 5.99996C15.3333 4.66663 12.0501 0.666626 7.99999 0.666626C3.9499 0.666626 0.666656 4.66663 0.666656 5.99996C0.666656 7.33329 3.9499 11.3333 7.99999 11.3333Z" fill="#999999"/>
<circle cx="7.99998" cy="5.99992" r="2.01667" stroke="#999999" stroke-width="1.3"/>
</svg>
